<?xml version="1.0" encoding="UTF-8"?>
<svg version="1.1" xmlns="http://www.w3.org/2000/svg" width="500" height="500">
<path d="M0 0 C165 0 330 0 500 0 C500 165 500 330 500 500 C335 500 170 500 0 500 C0 335 0 170 0 0 Z " fill="#535454" transform="translate(0,0)"/>
<path d="M0 0 C1.1240625 0.40992187 2.248125 0.81984375 3.40625 1.2421875 C40.10244759 15.058643 66.81614925 41.48571493 83 77 C85.69604978 83.60075386 87.72882893 90.21419061 89.1875 97.1875 C89.4340332 98.3002832 89.4340332 98.3002832 89.68554688 99.43554688 C94.08856646 119.81065371 94.4411608 144.063774 88 164 C87.67854004 165.0506665 87.67854004 165.0506665 87.35058594 166.12255859 C80.66580482 187.74836067 69.70233789 205.73846205 54 222 C53.19820312 222.86496094 52.39640625 223.72992188 51.5703125 224.62109375 C45.05251006 231.47012877 37.84784307 236.80459561 30 242 C29.09121094 242.61617187 28.18242187 243.23234375 27.24609375 243.8671875 C-0.95211492 261.68090302 -37.79239185 267.11325699 -70.2734375 259.96875 C-71.50320312 259.6490625 -72.73296875 259.329375 -74 259 C-74.68481445 258.83371094 -75.36962891 258.66742188 -76.07519531 258.49609375 C-96.12926428 253.58043454 -114.28456699 243.29553447 -130 230 C-130.63550781 229.48695313 -131.27101562 228.97390625 -131.92578125 228.4453125 C-136.48090673 224.7082916 -140.25027042 220.53336447 -144 216 C-144.825 215.04738281 -145.65 214.09476563 -146.5 213.11328125 C-162.06892887 194.68326338 -170.62782835 172.49649084 -175 149 C-175.17200928 148.26813477 -175.34401855 147.53626953 -175.52124023 146.78222656 C-176.47981061 141.21166662 -176.22581929 135.50598141 -176.24023438 129.86547852 C-176.24983808 127.60068567 -176.2808449 125.33684193 -176.3125 123.07226562 C-176.38122459 113.67032995 -175.4013072 105.14639439 -173 96 C-172.80647949 95.20053955 -172.61295898 94.4010791 -172.41357422 93.57739258 C-169.70721925 82.62340176 -165.43694073 72.85673803 -160 63 C-159.50628906 62.08734375 -159.01257813 61.1746875 -158.50390625 60.234375 C-141.2228701 29.88241349 -111.68218864 7.83806626 -78.3671875 -1.84375 C-53.48730506 -8.59384751 -24.41225982 -8.96623123 0 0 Z " fill="#FE009D" transform="translate(292,122)"/>
<path d="M0 0 C0.94117676 0.24137695 1.88235352 0.48275391 2.85205078 0.73144531 C53.55738837 13.73700859 95.15696767 45.21807466 122.0625 90.125 C133.46215684 109.65708065 141.31745442 130.68018107 145 153 C145.16846436 153.8677002 145.33692871 154.73540039 145.51049805 155.62939453 C147.17504779 164.91676652 147.3389344 174.04993859 147.31567383 183.45410156 C147.31252967 186.10003544 147.33600127 188.74482962 147.36132812 191.390625 C147.42196001 207.2878245 145.50032926 222.62758781 140.875 237.875 C140.4260437 239.37571045 140.4260437 239.37571045 139.96801758 240.90673828 C130.06114733 272.95168237 112.7076384 300.4020557 89 324 C88.08992188 324.91007812 87.17984375 325.82015625 86.2421875 326.7578125 C51.45393537 359.84388716 3.8224633 376.73855426 -43.6875 376.5 C-44.59765869 376.49890228 -45.50781738 376.49780457 -46.44555664 376.49667358 C-60.55822218 376.44806137 -73.77359013 375.39562263 -87.45849609 371.68798828 C-89.89617971 371.02810428 -92.3408157 370.44136544 -94.80078125 369.87109375 C-141.79232642 358.51446926 -181.77011853 324.39497555 -206.80371094 284.02709961 C-225.26400622 253.38286622 -233.30781627 219.98301599 -233.4375 184.5 C-233.44385468 183.60430298 -233.45020935 182.70860596 -233.45675659 181.7857666 C-233.50813623 170.13740256 -232.57248039 159.3724623 -230 148 C-229.69100177 146.46258159 -229.38334657 144.92489139 -229.078125 143.38671875 C-221.07972801 107.65803031 -221.07972801 107.65803031 -211.12890625 98.2265625 C-207.22683576 95.97839712 -203.33376613 96.06793413 -199 97 C-196.03864753 98.83867339 -194.17899004 100.70843053 -193 104 C-192.83225383 110.70645792 -195.09981553 116.33823377 -197.75 122.375 C-215.28424062 164.4454227 -213.58522857 209.91463291 -197 252 C-194.67567724 257.53487474 -191.96731561 262.78691747 -189 268 C-188.65501465 268.6276123 -188.3100293 269.25522461 -187.95458984 269.90185547 C-182.62776407 279.56905781 -176.34924644 287.79073536 -169 296 C-167.74919858 297.45764602 -166.49907719 298.91587619 -165.25 300.375 C-164.17261255 301.58863785 -163.08964475 302.79735505 -162 304 C-161.50886719 304.54527344 -161.01773438 305.09054687 -160.51171875 305.65234375 C-136.25583381 331.2323713 -99.63317537 347.72061339 -65 352 C-64.1234375 352.11085938 -63.246875 352.22171875 -62.34375 352.3359375 C-17.5642133 356.98999047 27.84197203 344.26773408 62.93359375 315.87890625 C66.37497432 313.01177111 69.7086411 310.03741638 73 307 C73.81726563 306.25363281 74.63453125 305.50726563 75.4765625 304.73828125 C104.68911365 276.81603713 123.02972815 234.62657151 124.06640625 194.42480469 C124.6073277 167.64017745 121.24468613 142.6182206 110 118 C109.71962891 117.37641602 109.43925781 116.75283203 109.15039062 116.11035156 C101.1390777 98.48723162 90.11241194 83.16890554 77 69 C76.30519531 68.23429687 75.61039062 67.46859375 74.89453125 66.6796875 C52.78146068 43.38788183 21.81803757 29.25561408 -9 22 C-9.88816406 21.78601563 -10.77632812 21.57203125 -11.69140625 21.3515625 C-52.58315503 12.29367914 -98.03477179 22.61678901 -133.13671875 44.46875 C-142.73071993 50.6507582 -151.25575043 57.92950704 -159.5390625 65.75 C-163.78640266 69.63328243 -166.20889474 70.44707394 -171.77734375 70.3203125 C-175.11256999 69.83966478 -176.75725465 68.44663129 -179 66 C-181.53318233 62.25660628 -181.32296122 58.30634173 -181.3359375 53.9453125 C-181.3425943 53.16614471 -181.3492511 52.38697693 -181.35610962 51.584198 C-181.36621741 49.93848016 -181.37092722 48.2927215 -181.37060547 46.64697266 C-181.37497342 44.14025677 -181.41129517 41.63531022 -181.44921875 39.12890625 C-181.45508856 37.52604765 -181.45905685 35.92318074 -181.4609375 34.3203125 C-181.47530853 33.57637238 -181.48967957 32.83243225 -181.50448608 32.06594849 C-181.45952856 26.89759965 -180.25161251 23.98387913 -177 20 C-173.39973653 17.48338019 -170.3982021 17.78987098 -166.1953125 18.4140625 C-162.47559254 19.40687032 -161.04638967 20.76538408 -159 24 C-158.81079102 26.48657227 -158.81079102 26.48657227 -158.87890625 29.19140625 C-158.89638916 30.09189697 -158.91387207 30.9923877 -158.93188477 31.92016602 C-158.96560181 32.94968384 -158.96560181 32.94968384 -159 34 C-157.96746094 33.27296875 -156.93492187 32.5459375 -155.87109375 31.796875 C-140.24685498 20.98707135 -123.23887368 10.68163559 -105 5 C-104.23461914 4.76087891 -103.46923828 4.52175781 -102.68066406 4.27539062 C-70.59222765 -5.56619722 -32.70598557 -9.08175713 0 0 Z " fill="#FC019D" transform="translate(293,64)"/>
<path d="M0 0 C0.69132019 -0.00261841 1.38264038 -0.00523682 2.09490967 -0.00793457 C20.97705245 -0.01551233 40.09914982 2.05463017 58 8.3125 C58.90427734 8.61816895 59.80855469 8.92383789 60.74023438 9.23876953 C73.96363133 13.71975303 86.81365381 18.45645772 99 25.3125 C99.63583008 25.66812012 100.27166016 26.02374023 100.92675781 26.39013672 C109.78229431 31.39707385 118.04530663 36.9508553 126 43.3125 C127.01320313 44.12074219 128.02640625 44.92898437 129.0703125 45.76171875 C142.94894956 57.0617291 155.52561791 69.7904466 166 84.3125 C166.40347656 84.86099609 166.80695313 85.40949219 167.22265625 85.97460938 C187.8009078 114.19526624 201.04678769 148.48760678 204 183.3125 C204.10957031 184.35921875 204.21914063 185.4059375 204.33203125 186.484375 C206.07437665 205.53401807 205.64856234 224.53643689 202 243.3125 C201.87141602 244.03743652 201.74283203 244.76237305 201.61035156 245.50927734 C194.04794341 288.04541787 169.64349377 331.73586576 136 359.3125 C134.87191691 360.27548091 133.74436464 361.23908382 132.6171875 362.203125 C104.72367732 385.78504252 70.16925781 402.50579938 34 408.3125 C33.29166016 408.42819336 32.58332031 408.54388672 31.85351562 408.66308594 C11.15365106 411.87776536 -10.29464083 411.05064663 -31 408.3125 C-31.73476562 408.21598145 -32.46953125 408.11946289 -33.2265625 408.02001953 C-68.31455921 403.1635218 -102.95727441 387.03590137 -130 364.3125 C-130.61617188 363.80315918 -131.23234375 363.29381836 -131.8671875 362.76904297 C-159.3808679 339.97901229 -178.78108658 311.41381181 -192 278.3125 C-192.24991699 277.69391113 -192.49983398 277.07532227 -192.75732422 276.43798828 C-197.80531002 263.75880517 -200.62053726 250.72401724 -203 237.3125 C-203.13422363 236.5709668 -203.26844727 235.82943359 -203.40673828 235.06542969 C-208.90142496 203.24106998 -204.63009365 169.40793989 -194.5625 139 C-194.20349609 137.91066162 -193.84449219 136.82132324 -193.47460938 135.69897461 C-185.9167102 113.71404286 -185.9167102 113.71404286 -179 109.3125 C-174.78545149 108.47667357 -170.87903067 108.30442043 -167.01953125 110.375 C-165.375 111.6875 -165.375 111.6875 -163 114.3125 C-163 114.9725 -163 115.6325 -163 116.3125 C-163.9178125 116.68117188 -164.835625 117.04984375 -165.78125 117.4296875 C-175.43325503 123.0756419 -179.71853723 142.08879598 -182.59765625 152.46679688 C-183.65914301 156.53830379 -184.6353397 160.62915585 -185.47583008 164.75244141 C-185.88149402 166.73371394 -186.31687038 168.70891567 -186.7644043 170.68115234 C-189.11370351 181.7692861 -189.5211192 192.50077992 -189.4375 203.8125 C-189.43312927 204.73824829 -189.42875854 205.66399658 -189.42425537 206.61779785 C-189.07062287 260.77842506 -166.69687213 307.99251792 -128.41015625 345.875 C-105.81009815 366.93329041 -76.56913984 382.44889257 -46.5625 389.4375 C-45.52029297 389.68886719 -44.47808594 389.94023437 -43.40429688 390.19921875 C-40.2763959 390.93998637 -37.1425854 391.63691643 -34 392.3125 C-33.0939502 392.51407715 -32.18790039 392.7156543 -31.25439453 392.92333984 C-21.49749587 394.84174432 -11.65409331 394.70816291 -1.75 394.6875 C-0.35287277 394.68718277 -0.35287277 394.68718277 1.07247925 394.68685913 C15.7429378 394.65361208 29.69657612 393.83329762 44 390.3125 C44.73718262 390.14121582 45.47436523 389.96993164 46.23388672 389.79345703 C86.47089093 380.22372402 123.62248385 355.77594599 149 323.3125 C149.63228516 322.51875977 149.63228516 322.51875977 150.27734375 321.70898438 C165.76255999 302.15717573 176.2524492 279.57267925 183.3125 255.75 C183.54308105 254.98486084 183.77366211 254.21972168 184.01123047 253.43139648 C188.14389276 238.67557548 189.50362814 223.72953687 189.39111328 208.46069336 C189.37502403 205.87885588 189.3910844 203.29858782 189.41015625 200.71679688 C189.43204696 184.63616503 187.59539892 168.79330477 182.875 153.375 C182.42713135 151.88323242 182.42713135 151.88323242 181.97021484 150.36132812 C166.60201897 100.83721865 132.61690416 60.44860207 86.93066406 36.21484375 C75.4051826 30.25698876 63.37655875 26.12713706 51 22.3125 C49.96230469 21.98378906 48.92460937 21.65507813 47.85546875 21.31640625 C32.88224953 16.87734126 17.76890034 15.7927601 2.25 15.9375 C1.37836212 15.94148804 0.50672424 15.94547607 -0.3913269 15.94958496 C-13.75804419 16.02116534 -26.88127884 16.53110333 -40 19.3125 C-40.66531738 19.45171875 -41.33063477 19.5909375 -42.01611328 19.734375 C-46.41839371 20.69901367 -50.71076364 21.94172404 -55 23.3125 C-55.7439502 23.54420898 -56.48790039 23.77591797 -57.25439453 24.01464844 C-77.10890692 30.27685916 -95.82857739 39.22287649 -112.28125 52.09765625 C-114 53.3125 -114 53.3125 -116 53.3125 C-116.05607422 52.28189453 -116.05607422 52.28189453 -116.11328125 51.23046875 C-116.17902344 50.32941406 -116.24476563 49.42835937 -116.3125 48.5 C-116.37050781 47.60667969 -116.42851562 46.71335938 -116.48828125 45.79296875 C-117.07122445 42.96725171 -117.89983712 42.18744434 -120 40.3125 C-120 39.6525 -120 38.9925 -120 38.3125 C-118.50976562 37.11083984 -118.50976562 37.11083984 -116.40625 35.7734375 C-115.63152344 35.2794043 -114.85679687 34.78537109 -114.05859375 34.27636719 C-112.79208984 33.48987793 -112.79208984 33.48987793 -111.5 32.6875 C-110.20255859 31.87780762 -110.20255859 31.87780762 -108.87890625 31.05175781 C-101.13888789 26.28670246 -93.26337313 22.08703085 -85 18.3125 C-84.2790918 17.97766602 -83.55818359 17.64283203 -82.81542969 17.29785156 C-56.5719018 5.22469511 -28.77829328 0.10526013 0 0 Z " fill="#02ECFC" transform="translate(250,44.6875)"/>
<path d="M0 0 C24.52925531 19.75967789 43.46789069 46.57324274 50.81054688 77.45849609 C50.98569824 78.16651367 51.16084961 78.87453125 51.34130859 79.60400391 C53.70819241 89.2079709 55.52362332 98.53572317 55.81054688 108.45849609 C55.88789062 110.24900391 55.88789062 110.24900391 55.96679688 112.07568359 C56.74532037 144.31953179 46.26170581 177.36320375 25.81054688 202.45849609 C25.35115723 203.02777832 24.89176758 203.59706055 24.41845703 204.18359375 C21.30136113 208.02124575 18.09326783 211.76160007 14.81054688 215.45849609 C14.23046875 216.11205078 13.65039062 216.76560547 13.05273438 217.43896484 C-7.68009681 239.36992446 -39.32207462 254.82533947 -69.18945312 258.45849609 C-70.52169922 258.62285156 -70.52169922 258.62285156 -71.88085938 258.79052734 C-74.98449231 259.10722458 -78.07345231 259.30359663 -81.18945312 259.45849609 C-82.45917969 259.52423828 -83.72890625 259.58998047 -85.03710938 259.65771484 C-111.41872286 260.55775353 -136.18179349 253.98884069 -159.18945312 241.45849609 C-160.81173828 240.59224609 -160.81173828 240.59224609 -162.46679688 239.70849609 C-194.31080255 222.00372074 -218.74721192 189.87048806 -228.88916016 155.05664062 C-230.24520747 149.90194295 -231.27727692 144.7078589 -232.18945312 139.45849609 C-232.41375 138.23130859 -232.63804687 137.00412109 -232.86914062 135.73974609 C-237.763457 104.89884836 -231.95986522 73.57269018 -217.15234375 46.23681641 C-216.27682416 44.61985782 -215.4269773 42.98906454 -214.58007812 41.35693359 C-197.60706952 10.18373463 -165.94189239 -14.27498783 -132.18945312 -24.54150391 C-124.269885 -26.59421812 -116.25085391 -28.1614228 -108.18945312 -29.54150391 C-107.03574219 -29.74388672 -105.88203125 -29.94626953 -104.69335938 -30.15478516 C-67.31033113 -34.28067122 -29.62274262 -22.88806937 0 0 Z M-168.18945312 5.45849609 C-169.38828125 6.32474609 -169.38828125 6.32474609 -170.61132812 7.20849609 C-183.46460742 16.95346601 -194.58501404 28.83448034 -203.18945312 42.45849609 C-203.55119629 43.02922852 -203.91293945 43.59996094 -204.28564453 44.18798828 C-216.96287136 64.51971434 -223.3679179 86.84589922 -223.4296875 110.68896484 C-223.43930914 112.92503284 -223.47035101 115.16014628 -223.50195312 117.39599609 C-223.57373798 127.14512025 -222.49371481 135.97474577 -220.18945312 145.45849609 C-220.00656738 146.25868164 -219.82368164 147.05886719 -219.63525391 147.88330078 C-211.88227644 180.45367718 -190.07246133 210.28752035 -161.78540039 228.14404297 C-131.56627973 246.63579691 -94.28928221 254.30142272 -59.30493164 246.50341797 C-43.28300985 242.41400674 -27.78859136 235.88475912 -14.18945312 226.45849609 C-12.58650391 225.35634766 -12.58650391 225.35634766 -10.95117188 224.23193359 C18.39426819 202.80510434 38.03840873 171.56841423 44.38720703 135.71655273 C45.20221709 129.44417137 45.15586928 123.14710649 45.12304688 116.83349609 C45.12081116 115.77184738 45.12081116 115.77184738 45.11853027 114.68875122 C45.07796002 103.9756318 44.41557095 93.89001795 41.81054688 83.45849609 C41.57851563 82.29189453 41.34648437 81.12529297 41.10742188 79.92333984 C36.15098475 57.5950765 23.45226923 37.78487296 7.81054688 21.45849609 C7.00359375 20.57677734 6.19664062 19.69505859 5.36523438 18.78662109 C-11.93887854 0.50108088 -36.63685507 -12.49212642 -61.18945312 -17.54150391 C-62.15109375 -17.74775391 -63.11273438 -17.95400391 -64.10351562 -18.16650391 C-100.24841508 -24.62415344 -138.66501941 -16.46383792 -168.18945312 5.45849609 Z " fill="#04EAFB" transform="translate(339.189453125,135.54150390625)"/>
<path d="M0 0 C3.27853594 1.29801983 5.13912034 3.00652529 7 6 C8.07887948 11.63296778 7.98624511 17.2113688 7.9296875 22.9296875 C7.93440772 24.60589283 7.94120538 26.28209347 7.94998169 27.95828247 C7.96028544 31.46728239 7.94536238 34.97503251 7.91259766 38.48388672 C7.87277186 42.96571168 7.89564391 47.44459699 7.9376049 51.9263134 C7.96299684 55.38735786 7.95480498 58.84771459 7.93671036 62.30878067 C7.93206402 63.96007771 7.93768937 65.61143863 7.95406723 67.26266098 C8.06614895 81.74184528 8.06614895 81.74184528 3.63867188 86.90625 C1.80603027 88.59130859 1.80603027 88.59130859 0 90 C-0.84292603 90.72546021 -0.84292603 90.72546021 -1.70288086 91.46557617 C-3.21665388 92.75334424 -4.77955753 93.94024675 -6.375 95.125 C-7.60309102 96.06310653 -8.82958013 97.00331285 -10.0546875 97.9453125 C-10.6950293 98.43676758 -11.33537109 98.92822266 -11.99511719 99.43457031 C-15.55724971 102.21591393 -19.02363631 105.11272394 -22.5 108 C-28.89053318 113.29227296 -35.3461048 118.48656993 -41.89453125 123.58203125 C-43.85818786 125.1109664 -45.81488893 126.64891439 -47.76171875 128.19921875 C-48.56222656 128.83472656 -49.36273438 129.47023438 -50.1875 130.125 C-50.86167969 130.66382813 -51.53585938 131.20265625 -52.23046875 131.7578125 C-55.98430641 134.39295682 -59.55484141 134.45205003 -64 134 C-67.47884669 131.99327106 -69.7062659 129.88120231 -71 126 C-71.60071177 121.53756974 -71.36362192 119.55612764 -68.875 115.75 C-64.69528683 111.35594256 -59.77963335 107.7719721 -54.98046875 104.08984375 C-50.73822204 100.82438148 -46.61821251 97.4197204 -42.5 94 C-22.54908347 77.47531846 -22.54908347 77.47531846 -17.85069275 74.75605774 C-15.72530013 73.09012684 -15.72530013 73.09012684 -15.5146637 70.17399597 C-15.52396156 68.4524102 -15.52396156 68.4524102 -15.53344727 66.69604492 C-15.5298671 65.39426804 -15.52628693 64.09249115 -15.52259827 62.75126648 C-15.52989519 62.0556278 -15.53719212 61.35998913 -15.54471016 60.64327049 C-15.56660333 58.46082272 -15.56287856 56.27976072 -15.55223083 54.09724426 C-15.53056054 48.67545303 -15.54787847 43.25396818 -15.57373047 37.83221436 C-15.59517222 33.25332846 -15.59701744 28.67533174 -15.57081413 24.09646034 C-15.56647562 21.95225257 -15.59106645 19.80960499 -15.61634827 17.66557312 C-15.56064344 6.8161304 -15.56064344 6.8161304 -12.58959961 3.13012695 C-8.5469765 -0.19521354 -5.16018783 -0.88286249 0 0 Z " fill="#555354" transform="translate(254,172)"/>
<path d="M0 0 C3.70390021 2.02666238 5.65363011 3.48044516 8 7 C8.125 10.1875 8.125 10.1875 8 13 C7.38511719 13.15855469 6.77023438 13.31710938 6.13671875 13.48046875 C5.32847656 13.71378906 4.52023438 13.94710937 3.6875 14.1875 C2.88699219 14.40792969 2.08648437 14.62835938 1.26171875 14.85546875 C-1.82586852 16.41792656 -2.51924845 17.87212032 -4 21 C-4.31848388 23.78471085 -4.48766159 26.35937937 -4.51171875 29.14453125 C-4.52966995 29.91431808 -4.54762115 30.68410492 -4.56611633 31.47721863 C-4.62005387 33.92225764 -4.65406073 36.36710332 -4.6875 38.8125 C-4.72068782 40.47593826 -4.75517884 42.13935107 -4.79101562 43.80273438 C-4.87577037 47.86834971 -4.94265973 51.93390936 -5 56 C-8.65721093 55.79101652 -9.98920031 55.00959793 -12.77099609 52.53735352 C-15.87011033 48.45239185 -15.7216684 44.3657083 -15.6640625 39.40234375 C-15.66884613 38.49045792 -15.67362976 37.57857208 -15.67855835 36.63905334 C-15.68194914 34.71857978 -15.67280429 32.79804785 -15.65185547 30.87768555 C-15.62504601 27.94253761 -15.65164583 25.01120258 -15.68359375 22.07617188 C-15.68029011 20.20572075 -15.67388482 18.335272 -15.6640625 16.46484375 C-15.67418365 15.59077377 -15.68430481 14.7167038 -15.69473267 13.81614685 C-15.61041895 9.42345618 -15.45767604 7.57677055 -12.64599609 4.03344727 C-8.05820439 0.50773061 -5.84602174 -0.59451069 0 0 Z " fill="#01EDFC" transform="translate(117,69)"/>
</svg>
